<svg xmlns="http://www.w3.org/2000/svg" width="160" height="46" viewBox="0 0 160 46"><g><g><g><g/><g><path fill="#c8a35f" d="M36.723 33.86a18.12 18.12 0 0 1-2.164 3.033l.022.022-.766.77a17.914 17.914 0 0 1-12.79 5.322 17.918 17.918 0 0 1-12.752-5.283A17.918 17.918 0 0 1 2.989 24.97c0-.356.01-.717.032-1.076.003-.049.005-.098.01-.15v-.014l.007-.099v-.017c.005-.074.013-.15.02-.223.005-.062.01-.126.017-.192l.03-.29c.007-.056.012-.12.022-.182.01-.078.02-.169.032-.257l.022-.148a6.12 6.12 0 0 1 .04-.26c.006-.047.016-.1.024-.152a11.228 11.228 0 0 1 .059-.32l.034-.18c.015-.07.027-.14.044-.213.103-.491.231-.985.376-1.466l.005-.012c.017-.064.037-.128.059-.19l.051-.164c.104-.315.217-.634.337-.94.017-.043.034-.09.052-.133.02-.047.036-.096.058-.148l.08-.191c.019-.05.043-.106.068-.16l.01-.025c.034-.073.066-.15.1-.223a17.78 17.78 0 0 1 1.714-2.984l.104-.14a8.88 8.88 0 0 1 .216-.29c.035-.045.071-.094.108-.14.079-.103.16-.204.238-.302.047-.057.094-.118.143-.175l.142-.17c.047-.056.099-.115.148-.171l.17-.194-2.118-2.12A20.892 20.892 0 0 0 0 24.969a20.884 20.884 0 0 0 6.158 14.867 20.884 20.884 0 0 0 14.867 6.158c5.635 0 10.928-2.201 14.902-6.195a21.088 21.088 0 0 0 2.977-3.76z"/></g><g><path fill="#fff" d="M9.815 36.184a15.757 15.757 0 0 0 11.61 4.64c.066 0 .13-.003.197-.005h.01l.292-.015.233-.015.106-.007.054-.005c.071-.005.142-.012.216-.02.064-.004.123-.01.184-.017.044-.005.084-.01.12-.012l.082-.01c.051-.007.103-.012.157-.02.196-.024.388-.051.577-.083.054-.01.106-.02.157-.027l.017-.002.123-.023.02-.005c.054-.01.108-.02.162-.032.142-.027.282-.056.42-.088.093-.02.187-.044.28-.066l.012-.003a.744.744 0 0 0 .071-.017c.07-.017.13-.034.195-.049.054-.015.105-.027.154-.042.045-.012.084-.022.12-.034.038-.01.067-.017.094-.027l.022-.008a4.128 4.128 0 0 0 .297-.09l.13-.04c.133-.044.266-.088.396-.135l.105-.037.027-.01.128-.046.182-.069c.05-.02.093-.034.135-.052.081-.031.155-.06.228-.093l.222-.093.201-.089c.04-.017.071-.032.106-.046l.032-.015c.054-.025.108-.052.162-.076.334-.16.663-.33.98-.511.034-.02.066-.04.1-.057.074-.041.148-.085.219-.127l.363-.224c.16-.103.327-.211.506-.334l.148-.103.02-.015c.036-.027.073-.051.11-.078l.01-.008.08-.059.01-.007c.047-.032.092-.066.136-.1.051-.037.1-.077.147-.114.035-.027.062-.049.091-.07l.034-.028c.05-.04.101-.078.15-.12l.153-.123.012-.01c.096-.078.189-.16.285-.24.03-.025.056-.05.086-.077l-2.12-2.122a12.819 12.819 0 0 1-8.336 3.063c-7.094 0-12.866-5.772-12.866-12.866 0-3.458 1.353-6.703 3.807-9.137A12.977 12.977 0 0 1 16 13.13l-2.25-2.25a15.921 15.921 0 0 0-3.895 2.844A15.732 15.732 0 0 0 5.17 24.97c0 4.237 1.65 8.218 4.645 11.215z"/></g><g><path fill="#fff" d="M39.016 21.025A20.884 20.884 0 0 0 32.86 6.158 20.89 20.89 0 0 0 17.989 0C12.354 0 7.06 2.198 3.089 6.195A21.12 21.12 0 0 0 .11 9.955l2.184 2.184a18.118 18.118 0 0 1 2.163-3.034l-.022-.022.767-.769a17.91 17.91 0 0 1 12.79-5.322c4.816 0 9.345 1.876 12.752 5.283a17.914 17.914 0 0 1 5.283 12.753c0 .356-.01.72-.032 1.076-.002.046-.005.098-.01.15l-.007.11v.017c-.005.074-.012.15-.02.224-.004.061-.01.127-.017.194l-.03.29c-.007.056-.011.117-.021.181l-.032.258-.022.145c-.01.084-.025.172-.04.263-.007.046-.017.1-.024.152-.008.044-.015.088-.025.133a10.738 10.738 0 0 1-.071.366 17.599 17.599 0 0 1-.42 1.68c-.02.066-.04.135-.064.204l-.051.164c-.104.317-.217.634-.337.94l-.051.131-.06.147-.078.192c-.02.05-.044.106-.069.16l-.01.024-.1.224-.076.164a17.79 17.79 0 0 1-1.639 2.82l-.1.14a17.994 17.994 0 0 1-.325.43c-.078.103-.16.204-.238.302-.047.057-.093.118-.142.174a6.206 6.206 0 0 1-.133.16l-.01.01c-.05.056-.098.115-.15.172l-.17.194 2.118 2.12a20.89 20.89 0 0 0 5.445-14.114z"/></g><g><path fill="#c8a35f" d="M23.026 32.871l2.25 2.25a15.921 15.921 0 0 0 3.896-2.844A15.743 15.743 0 0 0 33.85 21.03c0-4.235-1.65-8.219-4.645-11.213A15.755 15.755 0 0 0 17.991 5.17c-.133 0-.265.002-.398.005-.066 0-.13.002-.196.005h-.008l-.292.015-.233.014-.106.008-.054.005a6.9 6.9 0 0 0-.214.02l-.184.019c-.044.005-.083.01-.12.012l-.062.008-.02.002a19.17 19.17 0 0 0-.732.103c-.053.01-.105.017-.157.027l-.017.003-.12.022-.027.005-.157.03a9.22 9.22 0 0 0-.425.088c-.094.02-.187.044-.28.066l-.012.002a.752.752 0 0 0-.072.018c-.068.017-.13.034-.194.049l-.155.041-.122.035-.094.027-.022.007c-.04.01-.078.022-.118.035-.066.02-.122.036-.179.056a3.748 3.748 0 0 1-.13.04c-.133.044-.265.088-.396.134l-.103.037-.03.01c-.043.017-.083.03-.122.047a3.797 3.797 0 0 0-.187.071l-.135.054a7.303 7.303 0 0 0-.228.093l-.221.094-.202.088-.105.047-.032.015c-.054.024-.108.051-.162.076-.334.16-.664.329-.98.51l-.101.057-.206.12-.229.14a14.8 14.8 0 0 0-.648.425l-.135.094-.03.02c-.042.029-.078.056-.115.083l-.015.01c-.025.02-.05.037-.076.056l-.01.008c-.047.031-.09.066-.135.1-.052.037-.098.076-.147.113l-.091.071-.035.027-.15.12c-.056.045-.11.092-.164.136a12.364 12.364 0 0 0-.371.317l2.122 2.122a12.821 12.821 0 0 1 8.337-3.065c7.093 0 12.865 5.772 12.865 12.865 0 3.459-1.353 6.703-3.807 9.137a13.014 13.014 0 0 1-4.02 2.702z"/></g></g><g><g/><g><g><path fill="#fff" d="M57.924 30.24l-.614 1.854h1.24l-.613-1.854z"/></g><g><path fill="#fff" d="M58.808 19.75c-.21.934-.608 1.646-1.182 2.135-.588.47-1.3.712-2.148.712a3.841 3.841 0 0 1-1.94-.522c-.587-.346-1.024-.882-1.299-1.593-.3-.712-.437-1.56-.437-2.514 0-.744.124-1.476.366-2.168a3.346 3.346 0 0 1 1.234-1.665c.587-.398 1.332-.607 2.2-.607.764 0 1.384.176 1.887.555.502.366.881.953 1.142 1.77l.033.084 1.737-.398-.033-.104c-.327-1.078-.901-1.926-1.717-2.534-.816-.587-1.822-.881-3.017-.881-1.038 0-2.01.229-2.898.692a4.983 4.983 0 0 0-2.024 2.083c-.47.9-.712 1.972-.712 3.173 0 1.11.209 2.167.627 3.12.418.973 1.038 1.737 1.854 2.24.797.522 1.854.784 3.14.784 1.234 0 2.292-.346 3.154-1.006.868-.66 1.456-1.645 1.789-2.912l.032-.104-1.75-.431z"/></g><g><path fill="#fff" d="M76.717 14.938c.45.92.692 1.959.692 3.12 0 1.183-.248 2.253-.731 3.174-.503.94-1.195 1.665-2.096 2.135a5.877 5.877 0 0 1-2.892.731c-1.104 0-2.116-.261-2.997-.796-.881-.542-1.56-1.267-2.01-2.188a6.374 6.374 0 0 1-.693-2.911c0-1.92.535-3.467 1.593-4.558C68.641 12.555 70.025 12 71.71 12c1.09 0 2.096.261 2.984.783a5.193 5.193 0 0 1 2.024 2.155zm-1.123 3.134c0-.92-.157-1.73-.47-2.41a3.612 3.612 0 0 0-1.371-1.58 3.867 3.867 0 0 0-2.044-.554 3.934 3.934 0 0 0-2.755 1.077c-.764.712-1.162 1.94-1.162 3.624 0 1.351.379 2.422 1.11 3.205.75.764 1.684 1.163 2.794 1.163 1.123 0 2.077-.405 2.808-1.182.724-.777 1.09-1.907 1.09-3.343z"/></g><g><path fill="#fff" d="M92.564 12.504l-2.794 7.96c-.229.64-.399 1.142-.523 1.54l-.47-1.384-2.788-8.22H85.8v4.25l2.585 7.456h1.541l2.638-7.443z"/></g><g><path fill="#fff" d="M85.178 12.4H83.48v11.706h1.698z"/></g><g><path fill="#fff" d="M94.874 12.4H93.19v11.706h1.684z"/></g><g><path fill="#fff" d="M102.7 12.4h-1.75v11.706h1.75z"/></g><g><path fill="#fff" d="M109.731 14.222c-.26-.484-.574-.882-.985-1.143-.399-.28-.901-.47-1.476-.555-.418-.085-1.025-.124-1.802-.124h-2.148v1.56h2.272c.692 0 1.162.033 1.423.105.38.104.692.313.921.64.242.326.346.711.346 1.181 0 .627-.19 1.11-.588 1.456-.398.346-1.09.523-2.063.523h-2.304v1.58h2.291c1.665 0 2.86-.366 3.5-1.058.66-.692.986-1.54.986-2.546a3.669 3.669 0 0 0-.373-1.62z"/></g><g><path fill="#fff" d="M120.737 12.403L116.16 24.11h1.854l.523-1.372h-.02l1.319-3.551.28-.732.973-2.585h.02c.209-.575.379-1.162.522-1.737.177.555.418 1.234.712 1.992l1.182 3.049h-2.997l-.536 1.436h4.094l1.371 3.486h1.992l-4.89-11.706h-1.822z"/></g><g><path fill="#fff" d="M134.972 12.4h-1.632v11.706h1.632z"/></g><g><path fill="#fff" d="M141.063 21.195l-.033-.053v2.964h1.73V12.4h-1.697z"/></g><g><path fill="#fff" d="M135.59 16.144l4.818 7.07v-2.996l-4.818-7.058z"/></g><g><path fill="#fff" d="M157.912 12.4l-2.304 3.434c-.45.68-.85 1.32-1.195 1.874v-.02l-.973 1.476v4.942h1.77v-4.942l4.765-6.764h-2.063z"/></g><g><path fill="#fff" d="M154.057 17.081l-.725-1.162-2.344-3.519h-2.148l4.23 6.21z"/></g><g><path fill="#fff" d="M50 29.945h1.162v3.669h.647v-3.67h1.162v-.574H50z"/></g><g><path fill="#fff" d="M58.203 29.37l1.54 4.244h-.678l-.327-.947h-1.613l-.326.947h-.679l1.54-4.244zm.346 2.723l-.614-1.855h-.013l-.614 1.855z"/></g><g><path fill="#fff" d="M65.038 31.88h.862v.221c-.007.268-.085.483-.249.647a.827.827 0 0 1-.62.254.759.759 0 0 1-.391-.098.676.676 0 0 1-.268-.215.68.68 0 0 1-.163-.36c-.033-.15-.046-.43-.046-.848s.013-.699.046-.855a.737.737 0 0 1 .163-.353.737.737 0 0 1 .268-.215.912.912 0 0 1 .391-.092.881.881 0 0 1 .523.177.935.935 0 0 1 .287.437h.679a1.582 1.582 0 0 0-.49-.894c-.261-.242-.594-.36-.999-.366-.333.007-.613.085-.835.242-.229.15-.392.326-.497.522a1.17 1.17 0 0 0-.143.405c-.026.17-.046.496-.046.992 0 .483.013.816.046.986a.89.89 0 0 0 .058.228c.027.06.053.118.085.183.105.196.268.366.497.516.222.157.502.235.835.242a1.52 1.52 0 0 0 1.078-.438c.28-.287.43-.64.437-1.07v-.862h-1.508v.613z"/></g><g><path fill="#fff" d="M71.51 29.37h-.64v4.244h2.71v-.607h-2.07z"/></g><g><path fill="#fff" d="M78.41 29.37h-.64v4.244h.64z"/></g><g><path fill="#fff" d="M85.413 32.386h-.006L83.48 29.37h-.601v4.244h.64v-3.017h.013l1.92 3.017h.607V29.37h-.647z"/></g><g><path fill="#fff" d="M90.53 33.614h2.71v-.607h-2.064V31.76h1.763v-.568h-1.763v-1.215h2.064v-.607h-2.71z"/></g><g><path fill="#fff" d="M103.808 31.88h.862v.221c-.007.268-.085.483-.249.647a.827.827 0 0 1-.62.254.759.759 0 0 1-.391-.098.676.676 0 0 1-.268-.215.68.68 0 0 1-.163-.36c-.033-.15-.046-.43-.046-.848s.013-.699.046-.855a.737.737 0 0 1 .163-.353.737.737 0 0 1 .268-.215.866.866 0 0 1 .914.085.935.935 0 0 1 .287.437h.679a1.582 1.582 0 0 0-.49-.894c-.254-.242-.594-.36-.999-.366-.333.007-.613.085-.835.242-.229.15-.392.326-.497.522a1.17 1.17 0 0 0-.143.405c-.026.17-.046.496-.046.992 0 .483.013.816.046.986a.89.89 0 0 0 .058.228c.027.06.053.118.085.183.105.196.268.366.497.516.222.157.502.235.835.242a1.52 1.52 0 0 0 1.078-.438c.28-.287.43-.64.437-1.07v-.862h-1.508z"/></g><g><path fill="#fff" d="M112.487 30.499c.026.17.039.502.039.992s-.013.816-.04.986a.985.985 0 0 1-.15.411 1.386 1.386 0 0 1-.483.516c-.222.15-.502.235-.842.242-.333-.007-.613-.085-.835-.242a1.429 1.429 0 0 1-.497-.516c-.032-.065-.058-.124-.085-.183a.89.89 0 0 1-.058-.228c-.033-.17-.046-.503-.046-.986 0-.496.02-.823.046-.992.032-.17.078-.3.143-.405.105-.196.268-.372.497-.522.222-.157.502-.235.835-.242.333.007.614.085.842.242.222.15.386.326.484.522a.99.99 0 0 1 .15.405zm-.607.992c0-.418-.02-.705-.046-.855a.688.688 0 0 0-.17-.353.828.828 0 0 0-.254-.215.942.942 0 0 0-.399-.092.911.911 0 0 0-.391.092.737.737 0 0 0-.268.215.737.737 0 0 0-.163.353c-.033.156-.046.437-.046.855s.013.699.046.849a.68.68 0 0 0 .163.359.676.676 0 0 0 .268.215.759.759 0 0 0 .391.098c.15 0 .288-.032.399-.098a.828.828 0 0 0 .254-.215.801.801 0 0 0 .17-.36c.033-.15.046-.43.046-.848z"/></g><g><path fill="#fff" d="M116.85 33.614h2.71v-.607h-2.064V31.76h1.763v-.568h-1.763v-1.215h2.064v-.607h-2.71z"/></g><g><path fill="#fff" d="M125.326 31.184c-.203-.026-.36-.045-.477-.065-.209-.04-.36-.111-.457-.209a.456.456 0 0 1-.144-.333c.007-.202.072-.36.216-.457.13-.098.3-.15.496-.15.385.006.731.117 1.051.326l.36-.529a2.355 2.355 0 0 0-1.378-.437c-.438.007-.777.118-1.019.346-.248.229-.372.529-.372.895 0 .306.098.568.294.783.19.209.47.346.836.405.202.026.391.052.561.078.372.065.555.255.555.568-.007.385-.287.581-.836.588-.463-.007-.868-.144-1.208-.425l-.424.484c.45.385.992.58 1.62.58.972-.012 1.468-.424 1.488-1.233 0-.3-.092-.562-.28-.79-.19-.222-.484-.366-.882-.425z"/></g><g><path fill="#fff" d="M138.064 31.192h-1.678V29.37h-.646v4.244h.646V31.76h1.678v1.854h.647V29.37h-.647z"/></g><g><path fill="#fff" d="M143.19 33.614h2.71v-.607h-2.07V31.76h1.763v-.568h-1.763v-1.215h2.07v-.607h-2.71z"/></g><g><path fill="#fff" d="M152.202 31.723l.986 1.88h-.764l-.875-1.814h-.823v1.815h-.646V29.36h1.658c.353 0 .64.091.862.28.274.216.412.517.425.908-.007.581-.281.973-.823 1.175zm-.503-.496c.242 0 .425-.072.542-.209a.651.651 0 0 0 .176-.463c-.006-.222-.078-.385-.215-.483-.105-.085-.268-.13-.47-.13h-1.006v1.285z"/></g><g><path fill="#fff" d="M157.29 33.614H160v-.607h-2.07V31.76h1.763v-.568h-1.763v-1.215H160v-.607h-2.71z"/></g></g></g></g></g></svg>