<svg xmlns="http://www.w3.org/2000/svg" width="18" height="30" viewBox="0 0 18 30"><g><g opacity=".8"><g opacity=".8"/><g opacity=".8"><path fill="#fff" d="M17.799 8.824v12.352c0 4.866-3.959 8.824-8.825 8.824C4.11 30 .15 26.042.15 21.176V8.824C.15 3.96 4.109 0 8.974 0 13.84 0 17.8 3.959 17.8 8.824zm-1.8 0A7.032 7.032 0 0 0 8.974 1.8 7.032 7.032 0 0 0 1.95 8.824v12.352A7.033 7.033 0 0 0 8.974 28.2 7.033 7.033 0 0 0 16 21.176z"/></g><g opacity=".8"><path fill="#fff" d="M8.98 5.97a.9.9 0 0 0-.9.9v4.142a.9.9 0 0 0 1.8 0V6.87a.9.9 0 0 0-.9-.9z"/></g></g></g></svg>