<svg xmlns="http://www.w3.org/2000/svg" width="19" height="25" viewBox="0 0 19 25"><g><g><g/><g><path fill="#c8a35f" d="M18.645 9.162c0 2.321-1.463 5.6-4.347 9.747a65.47 65.47 0 0 1-4.269 5.475L9.482 25l-.546-.616a65.374 65.374 0 0 1-4.27-5.475C1.783 14.762.32 11.483.32 9.162.32 4.11 4.43 0 9.482 0c5.053 0 9.163 4.11 9.163 9.162zm-1.462 0c0-4.246-3.454-7.7-7.7-7.7-4.247 0-7.701 3.454-7.701 7.7 0 1.989 1.412 5.07 4.085 8.912a66.362 66.362 0 0 0 3.615 4.703c.76-.9 2.2-2.665 3.624-4.715 2.667-3.836 4.077-6.914 4.077-8.9z"/></g><g><path fill="#c8a35f" d="M14.895 8.798a5.414 5.414 0 0 1-5.407 5.407A5.414 5.414 0 0 1 4.08 8.798 5.414 5.414 0 0 1 9.488 3.39a5.414 5.414 0 0 1 5.407 5.408zm-1.461 0a3.95 3.95 0 0 0-3.946-3.946 3.95 3.95 0 0 0-3.946 3.946 3.95 3.95 0 0 0 3.946 3.946 3.95 3.95 0 0 0 3.946-3.946z"/></g></g></g></svg>